<svg width="152" height="80" viewBox="0 0 152 80" fill="none" xmlns="http://www.w3.org/2000/svg">
<g clip-path="url(#clip0_319_5252)">
<path d="M14.3146 23.9111C13.6039 23.9111 12.7946 23.7827 11.8865 23.5259C10.9982 23.2691 10.0606 22.9926 9.07352 22.6963C8.10623 22.3802 7.13896 22.1531 6.17169 22.0148C5.50052 22.6469 4.86883 23.1012 4.27662 23.3778C3.70416 23.6346 3.19091 23.763 2.73688 23.763C2.16442 23.763 1.68078 23.5951 1.28597 23.2593C0.891173 22.9235 0.595069 22.4988 0.397666 21.9852C0.200264 21.4518 0.101562 20.9086 0.101562 20.3556C0.101562 19.7827 0.200264 19.2395 0.397666 18.7259C0.614809 18.2123 0.940524 17.7975 1.37481 17.4815C1.80909 17.1457 2.36182 16.9778 3.03299 16.9778C3.17117 16.9778 3.31922 16.9877 3.47714 17.0074C3.63507 17.0272 3.80286 17.0568 3.98052 17.0963C4.35559 15.9506 4.6813 14.6864 4.95766 13.3037C5.25377 11.9012 5.48078 10.5284 5.6387 9.18518C5.81636 7.84198 5.9052 6.67654 5.9052 5.68889C5.9052 5.29383 5.88545 5.01728 5.84597 4.85926C5.80649 4.68148 5.7374 4.5037 5.6387 4.32593L5.60909 4.23704C5.84597 3.60494 6.24078 3.11111 6.79351 2.75556C7.34623 2.4 7.92857 2.22222 8.54052 2.22222C9.21169 2.22222 9.76442 2.46914 10.1987 2.96296C10.633 3.43704 10.8502 4.23704 10.8502 5.36296C10.8502 6.07407 10.7613 6.96296 10.5837 8.02963C10.4258 9.07654 10.1987 10.2123 9.90264 11.437C9.60649 12.642 9.28078 13.837 8.92546 15.0222C8.57013 16.2074 8.21481 17.2642 7.85948 18.1926C8.72805 18.3901 9.59662 18.6173 10.4652 18.8741C11.3535 19.1309 12.2221 19.2593 13.0709 19.2593C13.7224 19.2593 14.3442 19.1407 14.9364 18.9037C15.5484 18.6667 16.1208 18.2321 16.6538 17.6C17.0486 17.8568 17.3348 18.2222 17.5125 18.6963C17.7099 19.1704 17.8086 19.6741 17.8086 20.2074C17.8086 20.8 17.6803 21.3827 17.4237 21.9556C17.1868 22.5086 16.8117 22.9728 16.2985 23.3481C15.7852 23.7235 15.1239 23.9111 14.3146 23.9111ZM25.5473 23.9111C24.1062 23.9111 22.912 23.6247 21.9644 23.0518C21.0169 22.4593 20.3062 21.6889 19.8325 20.7407C19.3587 19.7728 19.1218 18.7358 19.1218 17.6296C19.1218 16.5827 19.3192 15.5358 19.714 14.4889C20.1286 13.4222 20.7208 12.4543 21.4907 11.5852C22.2803 10.716 23.2278 10.0148 24.3333 9.48148C25.4585 8.94815 26.7218 8.68148 28.1234 8.68148C29.8605 8.68148 31.1239 9.07654 31.9135 9.86667C32.7229 10.637 33.1275 11.5753 33.1275 12.6815C33.1275 13.6296 32.8709 14.5086 32.3577 15.3185C31.8642 16.1086 31.2029 16.7506 30.3738 17.2444C29.5447 17.7185 28.6366 17.9556 27.6496 17.9556C27.1364 17.9556 26.6133 17.8765 26.0803 17.7185C25.5473 17.5605 25.0242 17.3136 24.5109 16.9778C24.6096 18.2025 24.9649 19.0914 25.5769 19.6444C26.1888 20.1975 26.9192 20.4741 27.7681 20.4741C28.3603 20.4741 28.9525 20.3654 29.5447 20.1481C30.1369 19.9111 30.6798 19.6148 31.1733 19.2593C31.6865 18.8839 32.0813 18.4889 32.3577 18.0741L32.565 18.2222C32.565 19.2494 32.3478 20.1284 31.9135 20.8593C31.499 21.5704 30.9462 22.1531 30.2553 22.6074C29.5644 23.0617 28.8044 23.3975 27.9753 23.6148C27.166 23.8123 26.3566 23.9111 25.5473 23.9111ZM26.2283 15.9111C26.86 15.9111 27.3733 15.7333 27.7681 15.3778C28.1629 15.0025 28.459 14.5679 28.6564 14.0741C28.8538 13.5802 28.9525 13.1457 28.9525 12.7704C28.9525 12.316 28.8242 11.9407 28.5675 11.6444C28.3109 11.3284 27.9556 11.1704 27.5016 11.1704C27.1462 11.1704 26.7514 11.2988 26.3172 11.5556C25.9026 11.8123 25.5275 12.2568 25.192 12.8889C24.8564 13.5012 24.6392 14.3605 24.5405 15.4667C25.1722 15.763 25.7348 15.9111 26.2283 15.9111ZM39.7154 23.9704C38.4915 23.9704 37.4748 23.8025 36.6655 23.4667C35.8561 23.1309 35.2541 22.7062 34.8593 22.1926C34.4645 21.6593 34.2671 21.1259 34.2671 20.5926C34.2671 19.842 34.6026 19.1802 35.2738 18.6074C35.945 18.0148 36.853 17.7185 37.998 17.7185C37.998 18.7259 38.1263 19.5358 38.3829 20.1481C38.6395 20.7407 38.9652 21.1654 39.36 21.4222C39.7746 21.679 40.1694 21.8074 40.5445 21.8074C40.9985 21.8074 41.3735 21.679 41.6697 21.4222C41.9855 21.1457 42.1434 20.8099 42.1434 20.4148C42.1434 19.8617 41.8572 19.3778 41.2847 18.963C40.7123 18.5481 39.972 18.0839 39.0639 17.5704C38.6099 17.2938 38.1164 16.9778 37.5834 16.6222C37.0504 16.2469 36.5964 15.8025 36.2213 15.2889C35.8463 14.7556 35.6587 14.1235 35.6587 13.3926C35.6587 12.6222 35.8759 11.9407 36.3102 11.3481C36.7642 10.7556 37.3564 10.2617 38.0868 9.86667C38.8172 9.45185 39.6068 9.14568 40.4556 8.94815C41.3045 8.73086 42.1335 8.62222 42.9429 8.62222C44.4629 8.62222 45.6078 8.92839 46.3777 9.54074C47.1476 10.1531 47.5325 10.8049 47.5325 11.4963C47.5325 12.0889 47.2364 12.6222 46.6442 13.0963C46.052 13.5704 45.1439 13.8074 43.92 13.8074C43.9398 12.8 43.7325 12.0691 43.2982 11.6148C42.8639 11.1407 42.4 10.9037 41.9065 10.9037C41.5512 10.9037 41.2551 11.0123 41.0182 11.2296C40.7813 11.4469 40.6629 11.763 40.6629 12.1778C40.6629 12.6518 40.811 13.0667 41.1071 13.4222C41.4229 13.758 41.8078 14.0642 42.2619 14.3407C42.7356 14.5975 43.2193 14.8444 43.7128 15.0815C44.3839 15.3975 45.0156 15.7333 45.6078 16.0889C46.2 16.4444 46.6837 16.8494 47.0587 17.3037C47.4338 17.758 47.6213 18.3111 47.6213 18.963C47.6213 19.8518 47.2561 20.6815 46.5258 21.4518C45.8151 22.2025 44.8577 22.8148 43.6536 23.2889C42.4494 23.7432 41.1367 23.9704 39.7154 23.9704ZM62.5096 23.9111C61.7398 23.9111 60.96 23.8222 60.1704 23.6444C59.3808 23.4667 58.6504 23.1901 57.9793 22.8148C57.3278 22.4197 56.7948 21.916 56.3803 21.3037C55.9855 20.6716 55.7881 19.921 55.7881 19.0518C55.7881 18.9531 55.7881 18.8642 55.7881 18.7852C55.7881 18.6864 55.798 18.5679 55.8177 18.4296C55.8769 17.8963 56.0052 17.2346 56.2026 16.4444C56.4198 15.6543 56.6665 14.8148 56.9429 13.9259C57.2193 13.037 57.4857 12.158 57.7424 11.2889C58.0187 10.4198 58.2457 9.62963 58.4234 8.91852C58.6011 8.18765 58.6899 7.60494 58.6899 7.17037C58.6899 6.6963 58.5616 6.45926 58.305 6.45926C58.0483 6.45926 57.6634 6.70617 57.1502 7.2C56.6369 7.69383 56.0447 8.51358 55.3735 9.65926L55.1959 9.6C55.1959 8 55.5512 6.63704 56.2619 5.51111C56.9922 4.36543 58.0187 3.4963 59.3413 2.9037C60.6837 2.29136 62.2629 1.98519 64.079 1.98519C65.7767 1.98519 67.2374 2.24198 68.4613 2.75556C69.6852 3.24938 70.6821 3.93086 71.452 4.8C72.2416 5.66914 72.8239 6.66667 73.199 7.79259C73.5741 8.89876 73.7616 10.0642 73.7616 11.2889C73.7616 12.7704 73.4951 14.2617 72.9621 15.763C72.4489 17.2444 71.6987 18.6074 70.7117 19.8518C69.7444 21.0765 68.56 22.0642 67.1585 22.8148C65.7767 23.5457 64.227 23.9111 62.5096 23.9111ZM63.013 20C63.8026 20 64.5133 19.7728 65.145 19.3185C65.7964 18.8444 66.359 18.2222 66.8328 17.4518C67.3065 16.6815 67.6717 15.8321 67.9283 14.9037C68.185 13.9556 68.3133 13.0074 68.3133 12.0593C68.3133 10.9333 68.1159 9.87654 67.7211 8.88889C67.346 7.90123 66.7341 7.10123 65.8852 6.48889C65.0364 5.87654 63.9309 5.57037 62.5689 5.57037C62.6676 5.94568 62.7367 6.33086 62.7761 6.72593C62.8354 7.12099 62.865 7.52593 62.865 7.94074C62.865 8.84938 62.7761 9.77778 62.5985 10.7259C62.4406 11.6741 62.253 12.5926 62.0359 13.4815C61.8385 14.3704 61.6509 15.2 61.4733 15.9704C61.3154 16.7407 61.2364 17.4222 61.2364 18.0148C61.2364 18.6272 61.3647 19.1111 61.6213 19.4667C61.878 19.8222 62.3419 20 63.013 20ZM81.3615 23.9111C79.9205 23.9111 78.7262 23.6247 77.7786 23.0518C76.8311 22.4593 76.1204 21.6889 75.6467 20.7407C75.1729 19.7728 74.936 18.7358 74.936 17.6296C74.936 16.5827 75.1334 15.5358 75.5282 14.4889C75.9428 13.4222 76.535 12.4543 77.3049 11.5852C78.0945 10.716 79.042 10.0148 80.1475 9.48148C81.2727 8.94815 82.536 8.68148 83.9376 8.68148C85.6747 8.68148 86.9381 9.07654 87.7277 9.86667C88.5371 10.637 88.9418 11.5753 88.9418 12.6815C88.9418 13.6296 88.6851 14.5086 88.1719 15.3185C87.6784 16.1086 87.0171 16.7506 86.188 17.2444C85.3589 17.7185 84.4508 17.9556 83.4638 17.9556C82.9506 17.9556 82.4275 17.8765 81.8945 17.7185C81.3615 17.5605 80.8384 17.3136 80.3251 16.9778C80.4238 18.2025 80.7792 19.0914 81.3911 19.6444C82.003 20.1975 82.7334 20.4741 83.5823 20.4741C84.1745 20.4741 84.7667 20.3654 85.3589 20.1481C85.9511 19.9111 86.494 19.6148 86.9875 19.2593C87.5007 18.8839 87.8955 18.4889 88.1719 18.0741L88.3792 18.2222C88.3792 19.2494 88.162 20.1284 87.7277 20.8593C87.3132 21.5704 86.7605 22.1531 86.0695 22.6074C85.3786 23.0617 84.6186 23.3975 83.7895 23.6148C82.9802 23.8123 82.1708 23.9111 81.3615 23.9111ZM82.0425 15.9111C82.6742 15.9111 83.1875 15.7333 83.5823 15.3778C83.9771 15.0025 84.2732 14.5679 84.4706 14.0741C84.668 13.5802 84.7667 13.1457 84.7667 12.7704C84.7667 12.316 84.6384 11.9407 84.3817 11.6444C84.1251 11.3284 83.7698 11.1704 83.3158 11.1704C82.9605 11.1704 82.5656 11.2988 82.1314 11.5556C81.7168 11.8123 81.3417 12.2568 81.0062 12.8889C80.6706 13.5012 80.4534 14.3605 80.3547 15.4667C80.9864 15.763 81.549 15.9111 82.0425 15.9111ZM82.6051 7.67407C82.0524 7.93086 81.6181 7.96049 81.3023 7.76296C81.0062 7.56543 80.8581 7.25926 80.8581 6.84444C81.3516 6.25185 81.8056 5.55062 82.2202 4.74074C82.6545 3.91111 82.9999 3.10124 83.2566 2.31111C83.5132 1.50124 83.6119 0.819754 83.5527 0.266668C84.0659 0.108642 84.5989 0.0691365 85.1516 0.148149C85.7241 0.227162 86.2275 0.414816 86.6618 0.711111C87.1158 0.987655 87.4316 1.37284 87.6093 1.86667C87.7869 2.34074 87.7376 2.89383 87.4612 3.52593C87.2441 4.03951 86.948 4.52346 86.5729 4.97778C86.2176 5.4321 85.7241 5.87654 85.0924 6.31111C84.4607 6.74568 83.6316 7.2 82.6051 7.67407ZM93.8714 23.8222C93.3384 23.8222 92.8153 23.6938 92.302 23.437C91.8085 23.1605 91.4039 22.7259 91.088 22.1333C90.7722 21.5407 90.6142 20.7802 90.6142 19.8518C90.6142 19.0222 90.7228 18.0543 90.94 16.9481C91.1768 15.8222 91.4335 14.6568 91.7098 13.4518C92.0059 12.2469 92.2626 11.0716 92.4797 9.92593C92.6968 8.78025 92.7955 7.76296 92.7758 6.87407C92.7758 6.02469 92.6771 5.42222 92.4797 5.06667L92.4501 4.97778C92.6672 4.34568 93.0522 3.85185 93.6049 3.4963C94.1576 3.14074 94.74 2.96296 95.3519 2.96296C96.0428 2.96296 96.6548 3.22963 97.1878 3.76296C97.7405 4.27654 98.0168 5.14568 98.0168 6.37037C98.0168 7.02222 97.9379 7.80247 97.78 8.71111C97.622 9.6 97.4345 10.558 97.2174 11.5852C97.0002 12.5926 96.7732 13.5901 96.5363 14.5778C96.3192 15.5654 96.1317 16.4741 95.9737 17.3037C95.8158 18.1333 95.7368 18.8148 95.7368 19.3481C95.7368 19.9012 95.8158 20.2864 95.9737 20.5037C96.1317 20.7012 96.3093 20.8 96.5067 20.8C96.7239 20.8 96.9311 20.721 97.1285 20.563C97.3259 20.3852 97.4542 20.2272 97.5135 20.0889L97.7503 20.1481C97.7306 20.8593 97.5233 21.4914 97.1285 22.0444C96.7535 22.5975 96.2698 23.0321 95.6776 23.3481C95.1052 23.6642 94.5031 23.8222 93.8714 23.8222ZM104.941 7.85185C104.152 7.85185 103.5 7.61481 102.987 7.14074C102.493 6.64691 102.247 6.03457 102.247 5.3037C102.247 4.51358 102.543 3.8321 103.135 3.25926C103.727 2.68642 104.448 2.4 105.297 2.4C106.086 2.4 106.728 2.64691 107.221 3.14074C107.734 3.63457 107.991 4.24691 107.991 4.97778C107.991 5.7679 107.695 6.44938 107.103 7.02222C106.511 7.57531 105.79 7.85185 104.941 7.85185ZM102.869 23.8222C102.099 23.8222 101.408 23.5556 100.796 23.0222C100.184 22.4691 99.8779 21.5901 99.8779 20.3852C99.8779 19.6938 99.9667 19.0518 100.144 18.4593C100.342 17.8469 100.559 17.2543 100.796 16.6815C101.052 16.1086 101.27 15.5556 101.447 15.0222C101.645 14.4691 101.743 13.9259 101.743 13.3926C101.743 12.9185 101.664 12.5827 101.506 12.3852C101.349 12.1679 101.161 12.0593 100.944 12.0593C100.608 12.0593 100.283 12.2765 99.9667 12.7111L99.7594 12.5926C99.8384 11.8025 100.085 11.1309 100.5 10.5778C100.934 10.0049 101.457 9.56049 102.069 9.24444C102.701 8.92839 103.323 8.77037 103.934 8.77037C104.685 8.77037 105.336 9.01728 105.889 9.51111C106.441 9.98518 106.718 10.7654 106.718 11.8519C106.718 12.5037 106.619 13.1951 106.422 13.9259C106.244 14.637 106.027 15.3481 105.77 16.0593C105.533 16.7704 105.316 17.4321 105.119 18.0444C104.941 18.6568 104.852 19.1802 104.852 19.6148C104.852 19.9901 104.921 20.2568 105.06 20.4148C105.218 20.5728 105.385 20.6518 105.563 20.6518C105.741 20.6518 105.909 20.6025 106.066 20.5037C106.244 20.3852 106.372 20.2568 106.451 20.1185L106.659 20.1778C106.659 20.9086 106.461 21.5506 106.066 22.1037C105.691 22.637 105.218 23.0617 104.645 23.3778C104.073 23.6741 103.48 23.8222 102.869 23.8222ZM114.72 23.9111C113.417 23.9111 112.311 23.6148 111.403 23.0222C110.515 22.4296 109.844 21.6593 109.39 20.7111C108.936 19.7432 108.709 18.7062 108.709 17.6C108.709 16.5531 108.906 15.5062 109.301 14.4593C109.715 13.4123 110.317 12.4543 111.107 11.5852C111.897 10.6963 112.854 9.99506 113.979 9.48148C115.124 8.94815 116.437 8.68148 117.917 8.68148C119.378 8.68148 120.464 8.97778 121.175 9.57037C121.885 10.1432 122.241 10.7753 122.241 11.4667C122.241 12.1975 121.875 12.8691 121.145 13.4815C120.415 14.0938 119.349 14.4 117.947 14.4C118.026 14.1037 118.085 13.8074 118.125 13.5111C118.184 13.1951 118.214 12.8988 118.214 12.6222C118.214 12.2074 118.125 11.8617 117.947 11.5852C117.769 11.2889 117.454 11.1407 117 11.1407C116.585 11.1407 116.141 11.3284 115.667 11.7037C115.213 12.079 114.818 12.6321 114.483 13.363C114.167 14.0938 114.009 14.9926 114.009 16.0593C114.009 17.1062 114.177 17.9556 114.512 18.6074C114.868 19.2593 115.322 19.7333 115.874 20.0296C116.427 20.3062 117.009 20.4444 117.621 20.4444C118.431 20.4444 119.21 20.237 119.961 19.8222C120.711 19.3877 121.254 18.7951 121.589 18.0444L121.885 18.163C121.885 19.1901 121.648 20.0691 121.175 20.8C120.721 21.5111 120.128 22.1037 119.398 22.5778C118.668 23.0321 117.888 23.3679 117.059 23.5852C116.23 23.8025 115.45 23.9111 114.72 23.9111ZM129.918 23.9111C128.477 23.9111 127.282 23.6247 126.335 23.0518C125.387 22.4593 124.677 21.6889 124.203 20.7407C123.729 19.7728 123.492 18.7358 123.492 17.6296C123.492 16.5827 123.69 15.5358 124.084 14.4889C124.499 13.4222 125.091 12.4543 125.861 11.5852C126.651 10.716 127.598 10.0148 128.704 9.48148C129.829 8.94815 131.092 8.68148 132.494 8.68148C134.231 8.68148 135.494 9.07654 136.284 9.86667C137.093 10.637 137.498 11.5753 137.498 12.6815C137.498 13.6296 137.241 14.5086 136.728 15.3185C136.234 16.1086 135.573 16.7506 134.744 17.2444C133.915 17.7185 133.007 17.9556 132.02 17.9556C131.507 17.9556 130.984 17.8765 130.451 17.7185C129.918 17.5605 129.394 17.3136 128.881 16.9778C128.98 18.2025 129.335 19.0914 129.947 19.6444C130.559 20.1975 131.29 20.4741 132.138 20.4741C132.731 20.4741 133.323 20.3654 133.915 20.1481C134.507 19.9111 135.05 19.6148 135.544 19.2593C136.057 18.8839 136.452 18.4889 136.728 18.0741L136.935 18.2222C136.935 19.2494 136.718 20.1284 136.284 20.8593C135.869 21.5704 135.317 22.1531 134.626 22.6074C133.935 23.0617 133.175 23.3975 132.346 23.6148C131.536 23.8123 130.727 23.9111 129.918 23.9111ZM130.599 15.9111C131.23 15.9111 131.744 15.7333 132.138 15.3778C132.533 15.0025 132.829 14.5679 133.027 14.0741C133.224 13.5802 133.323 13.1457 133.323 12.7704C133.323 12.316 133.194 11.9407 132.938 11.6444C132.681 11.3284 132.326 11.1704 131.872 11.1704C131.517 11.1704 131.122 11.2988 130.687 11.5556C130.273 11.8123 129.898 12.2568 129.562 12.8889C129.227 13.5012 129.01 14.3605 128.911 15.4667C129.543 15.763 130.105 15.9111 130.599 15.9111ZM144.086 23.9704C142.862 23.9704 141.846 23.8025 141.036 23.4667C140.227 23.1309 139.625 22.7062 139.23 22.1926C138.835 21.6593 138.638 21.1259 138.638 20.5926C138.638 19.842 138.973 19.1802 139.645 18.6074C140.316 18.0148 141.224 17.7185 142.369 17.7185C142.369 18.7259 142.497 19.5358 142.754 20.1481C143.01 20.7407 143.336 21.1654 143.731 21.4222C144.145 21.679 144.54 21.8074 144.915 21.8074C145.369 21.8074 145.744 21.679 146.04 21.4222C146.356 21.1457 146.514 20.8099 146.514 20.4148C146.514 19.8617 146.228 19.3778 145.656 18.963C145.083 18.5481 144.343 18.0839 143.435 17.5704C142.981 17.2938 142.487 16.9778 141.954 16.6222C141.421 16.2469 140.967 15.8025 140.592 15.2889C140.217 14.7556 140.03 14.1235 140.03 13.3926C140.03 12.6222 140.247 11.9407 140.681 11.3481C141.135 10.7556 141.727 10.2617 142.458 9.86667C143.188 9.45185 143.978 9.14568 144.826 8.94815C145.675 8.73086 146.504 8.62222 147.314 8.62222C148.834 8.62222 149.979 8.92839 150.749 9.54074C151.518 10.1531 151.903 10.8049 151.903 11.4963C151.903 12.0889 151.607 12.6222 151.015 13.0963C150.423 13.5704 149.515 13.8074 148.291 13.8074C148.311 12.8 148.103 12.0691 147.669 11.6148C147.235 11.1407 146.771 10.9037 146.277 10.9037C145.922 10.9037 145.626 11.0123 145.389 11.2296C145.152 11.4469 145.034 11.763 145.034 12.1778C145.034 12.6518 145.182 13.0667 145.478 13.4222C145.794 13.758 146.179 14.0642 146.633 14.3407C147.106 14.5975 147.59 14.8444 148.084 15.0815C148.755 15.3975 149.386 15.7333 149.979 16.0889C150.571 16.4444 151.054 16.8494 151.43 17.3037C151.805 17.758 151.992 18.3111 151.992 18.963C151.992 19.8518 151.627 20.6815 150.897 21.4518C150.186 22.2025 149.229 22.8148 148.024 23.2889C146.82 23.7432 145.507 23.9704 144.086 23.9704ZM23.3871 51.4765C22.6765 51.4765 22.0053 51.2296 21.3736 50.7358C20.7617 50.242 20.2583 49.521 19.8635 48.5728C19.4884 47.6247 19.3009 46.479 19.3009 45.1358C19.3009 43.7531 19.4983 42.5185 19.8931 41.4321C20.2879 40.3457 20.8011 39.4271 21.4328 38.6765C22.0843 37.9062 22.785 37.3234 23.5352 36.9284C24.305 36.5333 25.0552 36.3358 25.7856 36.3358C26.5949 36.3358 27.3154 36.5926 27.9471 37.1062C28.5788 37.6 29.0131 38.3802 29.25 39.4469C29.4276 38.4592 29.5757 37.521 29.6941 36.6321C29.8323 35.7234 29.9014 34.9234 29.9014 34.2321C29.9014 33.3234 29.783 32.6617 29.5461 32.2469V32.0691C30.0001 31.5555 30.4936 31.1802 31.0266 30.9432C31.5793 30.6864 32.1024 30.558 32.5959 30.558C33.2474 30.558 33.8001 30.7654 34.2541 31.1802C34.7082 31.5753 34.9352 32.1481 34.9352 32.8988C34.9352 33.3136 34.8661 33.9259 34.7279 34.7358C34.5897 35.5457 34.4219 36.4741 34.2245 37.521C34.0271 38.5481 33.8198 39.6148 33.6027 40.721C33.4053 41.8074 33.2375 42.8543 33.0993 43.8617C32.9611 44.8494 32.892 45.7086 32.892 46.4395C32.892 47.0518 32.9513 47.5457 33.0697 47.921C33.2079 48.2765 33.425 48.4543 33.7211 48.4543C33.9383 48.4543 34.1554 48.3852 34.3726 48.2469C34.6095 48.0889 34.7674 47.9111 34.8463 47.7136L35.0536 47.8617C35.0536 48.5136 34.8463 49.116 34.4318 49.6691C34.0172 50.2025 33.4941 50.637 32.8624 50.9728C32.2307 51.3086 31.5793 51.4765 30.9081 51.4765C30.1778 51.4765 29.5954 51.279 29.1611 50.8839C28.7466 50.4691 28.4505 49.9457 28.2728 49.3136C28.0952 48.6815 27.9965 48.0296 27.9767 47.358C27.3648 48.7802 26.6443 49.8271 25.8152 50.4988C25.0058 51.1506 24.1965 51.4765 23.3871 51.4765ZM25.371 47.7136C25.8843 47.7136 26.4567 47.2494 27.0884 46.321C27.7201 45.3926 28.2728 44.0395 28.7466 42.2617L28.9243 41.3432C28.6084 40.6123 28.263 40.0988 27.8879 39.8025C27.5326 39.4864 27.1871 39.3284 26.8515 39.3284C26.358 39.3284 25.8941 39.6049 25.4598 40.158C25.0256 40.6913 24.6702 41.3827 24.3939 42.2321C24.1372 43.0617 24.0089 43.9407 24.0089 44.8691C24.0089 45.758 24.1372 46.4592 24.3939 46.9728C24.6505 47.4667 24.9762 47.7136 25.371 47.7136ZM42.6968 51.5654C41.2558 51.5654 40.0615 51.279 39.114 50.7062C38.1664 50.1136 37.4558 49.3432 36.982 48.395C36.5083 47.4271 36.2714 46.3901 36.2714 45.2839C36.2714 44.237 36.4688 43.1901 36.8636 42.1432C37.2781 41.0765 37.8703 40.1086 38.6402 39.2395C39.4298 38.3704 40.3774 37.6691 41.4828 37.1358C42.608 36.6025 43.8714 36.3358 45.2729 36.3358C47.0101 36.3358 48.2735 36.7309 49.0631 37.521C49.8724 38.2913 50.2771 39.2296 50.2771 40.3358C50.2771 41.2839 50.0205 42.1629 49.5072 42.9728C49.0137 43.7629 48.3524 44.4049 47.5233 44.8988C46.6942 45.3728 45.7862 45.6099 44.7992 45.6099C44.2859 45.6099 43.7628 45.5308 43.2298 45.3728C42.6968 45.2148 42.1737 44.9679 41.6605 44.6321C41.7592 45.8568 42.1145 46.7457 42.7264 47.2988C43.3384 47.8518 44.0688 48.1284 44.9176 48.1284C45.5098 48.1284 46.102 48.0197 46.6942 47.8025C47.2864 47.5654 47.8293 47.2691 48.3228 46.9136C48.8361 46.5383 49.2309 46.1432 49.5072 45.7284L49.7145 45.8765C49.7145 46.9037 49.4974 47.7827 49.0631 48.5136C48.6485 49.2247 48.0958 49.8074 47.4049 50.2617C46.714 50.716 45.954 51.0518 45.1249 51.2691C44.3155 51.4667 43.5062 51.5654 42.6968 51.5654ZM43.3779 43.5654C44.0096 43.5654 44.5228 43.3876 44.9176 43.0321C45.3124 42.6568 45.6085 42.2222 45.8059 41.7284C46.0033 41.2346 46.102 40.8 46.102 40.4247C46.102 39.9704 45.9737 39.5951 45.7171 39.2988C45.4605 38.9827 45.1052 38.8247 44.6511 38.8247C44.2958 38.8247 43.901 38.9531 43.4667 39.2099C43.0522 39.4667 42.6771 39.9111 42.3415 40.5432C42.0059 41.1555 41.7888 42.0148 41.6901 43.121C42.3218 43.4173 42.8844 43.5654 43.3779 43.5654ZM79.6556 51.358C79.0239 51.358 78.412 51.1802 77.8198 50.8247C77.2473 50.4691 76.7834 49.9062 76.4281 49.1358C76.0728 48.3654 75.8951 47.3778 75.8951 46.1728C75.8951 45.1852 76.0136 44.079 76.2504 42.8543C76.4873 41.6099 76.7933 40.3654 77.1684 39.121C77.5632 37.8765 77.9876 36.7506 78.4416 35.7432C77.0795 36.6518 75.8853 37.9062 74.8588 39.5062C73.8323 41.1062 72.9439 42.9629 72.1938 45.0765C72.3517 45.7086 72.48 46.3012 72.5788 46.8543C72.6775 47.4074 72.7268 47.9111 72.7268 48.3654C72.7268 49.2346 72.5195 49.916 72.105 50.4099C71.6904 50.9037 70.9699 51.1506 69.9434 51.1506C69.0354 51.1506 68.3642 50.9531 67.9299 50.558C67.5154 50.1432 67.3081 49.5704 67.3081 48.8395C67.3081 48.3654 67.3871 47.8222 67.545 47.2099C67.7226 46.5975 67.9694 45.9358 68.2852 45.2247C67.9299 44.1778 67.4956 43.0025 66.9824 41.6988C66.4691 40.3753 65.7486 38.9333 64.8208 37.3728C64.5445 38.5383 64.2582 39.7037 63.9621 40.8691C63.6858 42.0148 63.4489 43.0815 63.2515 44.0691C63.0738 45.037 62.985 45.8568 62.985 46.5284C62.985 47.6148 63.2811 48.158 63.8733 48.158L63.9325 48.2173C63.9325 48.8691 63.7647 49.4321 63.4291 49.9062C63.1133 50.3605 62.6988 50.716 62.1855 50.9728C61.692 51.2099 61.1689 51.3284 60.6162 51.3284C60.0832 51.3284 59.5601 51.2 59.0468 50.9432C58.5533 50.6864 58.1486 50.2913 57.8328 49.758C57.5169 49.2049 57.359 48.5037 57.359 47.6543C57.359 46.8444 57.4972 45.9654 57.7736 45.0173C58.0697 44.0494 58.4349 43.0716 58.8691 42.0839C59.3034 41.0765 59.7476 40.0988 60.2016 39.1506C60.6556 38.1827 61.0603 37.2839 61.4156 36.4543C61.7907 35.6049 62.0375 34.8642 62.1559 34.2321C61.7611 33.9555 61.3367 33.8173 60.8827 33.8173C60.5076 33.8173 60.1227 33.9457 59.7278 34.2025C59.3528 34.4395 58.9975 34.8444 58.6619 35.4173L58.4546 35.3284C58.4743 34.321 58.6915 33.4025 59.106 32.5728C59.5206 31.7234 60.0634 31.0518 60.7346 30.558C61.4255 30.0444 62.1756 29.7876 62.985 29.7876C63.9128 29.7876 64.8702 30.1926 65.8572 31.0025C66.8442 31.8123 67.7523 33.1457 68.5814 35.0025C69.4302 36.8592 70.1112 39.3679 70.6245 42.5284C71.3746 40.0988 72.1839 38.0642 73.0525 36.4247C73.9211 34.7852 74.8094 33.4815 75.7175 32.5136C76.6452 31.5457 77.5533 30.8543 78.4416 30.4395C79.3497 30.0049 80.2084 29.7876 81.0177 29.7876C82.0245 29.7876 82.9226 30.0346 83.7123 30.5284C84.5216 31.0222 85.1533 31.6444 85.6073 32.3951C86.0811 33.1457 86.318 33.8963 86.318 34.6469C85.8245 34.5086 85.331 34.4099 84.8375 34.3506C84.3637 34.2913 83.8998 34.2617 83.4458 34.2617C82.9917 34.2617 82.5575 34.2913 82.1429 34.3506C81.9652 35.2592 81.7777 36.2765 81.5803 37.4025C81.3829 38.5086 81.2052 39.6247 81.0473 40.7506C80.9091 41.8765 80.8401 42.9136 80.8401 43.8617C80.8401 44.8296 80.9387 45.6197 81.1362 46.2321C81.3336 46.8444 81.679 47.1506 82.1725 47.1506C82.4884 47.1506 82.8042 47.0123 83.1201 46.7358C83.4556 46.4592 83.7024 46.0346 83.8603 45.4617L84.0676 45.5506C84.0676 46.8543 83.8504 47.9407 83.4162 48.8099C82.9819 49.6592 82.4193 50.3012 81.7284 50.7358C81.0572 51.1506 80.3663 51.358 79.6556 51.358ZM92.3215 51.5654C90.8804 51.5654 89.6862 51.279 88.7386 50.7062C87.7911 50.1136 87.0804 49.3432 86.6067 48.395C86.1329 47.4271 85.896 46.3901 85.896 45.2839C85.896 44.237 86.0934 43.1901 86.4882 42.1432C86.9028 41.0765 87.495 40.1086 88.2649 39.2395C89.0545 38.3704 90.002 37.6691 91.1075 37.1358C92.2326 36.6025 93.496 36.3358 94.8976 36.3358C96.6347 36.3358 97.8981 36.7309 98.6877 37.521C99.4969 38.2913 99.9015 39.2296 99.9015 40.3358C99.9015 41.2839 99.6449 42.1629 99.1317 42.9728C98.6384 43.7629 97.9771 44.4049 97.148 44.8988C96.3189 45.3728 95.4108 45.6099 94.4238 45.6099C93.9106 45.6099 93.3875 45.5308 92.8545 45.3728C92.3215 45.2148 91.7984 44.9679 91.2851 44.6321C91.3838 45.8568 91.7391 46.7457 92.3511 47.2988C92.963 47.8518 93.6934 48.1284 94.5423 48.1284C95.1345 48.1284 95.7267 48.0197 96.3189 47.8025C96.9111 47.5654 97.4539 47.2691 97.9475 46.9136C98.4607 46.5383 98.8553 46.1432 99.1317 45.7284L99.3389 45.8765C99.3389 46.9037 99.1218 47.7827 98.6877 48.5136C98.2732 49.2247 97.7204 49.8074 97.0295 50.2617C96.3386 50.716 95.5786 51.0518 94.7495 51.2691C93.9402 51.4667 93.1308 51.5654 92.3215 51.5654ZM93.0025 43.5654C93.6342 43.5654 94.1475 43.3876 94.5423 43.0321C94.9371 42.6568 95.2332 42.2222 95.4306 41.7284C95.628 41.2346 95.7267 40.8 95.7267 40.4247C95.7267 39.9704 95.5984 39.5951 95.3417 39.2988C95.0851 38.9827 94.7298 38.8247 94.2758 38.8247C93.9204 38.8247 93.5256 38.9531 93.0914 39.2099C92.6768 39.4667 92.3017 39.9111 91.9662 40.5432C91.6306 41.1555 91.4134 42.0148 91.3147 43.121C91.9464 43.4173 92.509 43.5654 93.0025 43.5654ZM94.5127 35.3284C93.4862 34.8543 92.6571 34.4 92.0254 33.9654C91.3937 33.5309 90.9002 33.0864 90.5449 32.6321C90.1895 32.1778 89.8934 31.6938 89.6565 31.1802C89.3802 30.5481 89.3308 29.9951 89.5085 29.521C89.6862 29.0272 89.9921 28.642 90.4264 28.3654C90.8804 28.0691 91.3838 27.8815 91.9365 27.8025C92.509 27.7235 93.0519 27.763 93.5651 27.921C93.5256 28.4741 93.6243 29.1555 93.8612 29.9654C94.1178 30.7555 94.4534 31.5654 94.868 32.3951C95.3023 33.2049 95.7662 33.9062 96.2597 34.4988C96.2597 34.9136 96.1017 35.2197 95.7859 35.4173C95.4898 35.6148 95.0654 35.5852 94.5127 35.3284ZM104.921 51.4765C104.21 51.4765 103.578 51.1901 103.025 50.6173C102.473 50.0247 102.196 49.195 102.196 48.1284C102.196 47.6148 102.256 47.0321 102.374 46.3802C102.492 45.7284 102.631 45.0667 102.789 44.395C102.946 43.7037 103.085 43.0617 103.203 42.4691C103.322 41.8568 103.381 41.3531 103.381 40.958C103.381 40.5432 103.302 40.2173 103.144 39.9802C103.006 39.7234 102.818 39.5951 102.581 39.5951C102.206 39.5951 101.821 39.8518 101.426 40.3654L101.249 40.2469C101.229 39.9309 101.298 39.5555 101.456 39.121C101.614 38.6864 101.861 38.2716 102.196 37.8765C102.532 37.4617 102.956 37.116 103.47 36.8395C104.003 36.563 104.624 36.4247 105.335 36.4247C106.381 36.4247 107.141 36.7309 107.615 37.3432C108.089 37.9358 108.326 38.6568 108.326 39.5062C108.326 39.6444 108.316 39.7926 108.296 39.9506C108.296 40.0889 108.286 40.2271 108.266 40.3654C108.977 39.0815 109.717 38.1037 110.487 37.4321C111.277 36.7407 112.007 36.395 112.678 36.395C113.31 36.395 113.774 36.642 114.07 37.1358C114.366 37.6296 114.514 38.2222 114.514 38.9136C114.514 39.5457 114.386 40.1876 114.129 40.8395C113.892 41.4913 113.527 42.0346 113.034 42.4691C112.56 42.8839 111.978 43.0815 111.287 43.0617L111.168 43.0025C111.149 42.4889 110.981 42.0839 110.665 41.7876C110.349 41.4913 109.994 41.3432 109.599 41.3432C109.066 41.3432 108.563 41.6099 108.089 42.1432C107.635 42.6765 107.408 43.4469 107.408 44.4543C107.408 45.0667 107.477 45.7284 107.615 46.4395C107.753 47.1506 107.822 47.7531 107.822 48.2469C107.822 48.8395 107.684 49.3827 107.408 49.8765C107.131 50.3704 106.776 50.7654 106.342 51.0617C105.908 51.3383 105.434 51.4765 104.921 51.4765ZM121.154 51.5654C119.713 51.5654 118.519 51.279 117.571 50.7062C116.624 50.1136 115.913 49.3432 115.439 48.395C114.965 47.4271 114.728 46.3901 114.728 45.2839C114.728 44.237 114.926 43.1901 115.321 42.1432C115.735 41.0765 116.327 40.1086 117.097 39.2395C117.887 38.3704 118.834 37.6691 119.94 37.1358C121.065 36.6025 122.328 36.3358 123.73 36.3358C125.467 36.3358 126.731 36.7309 127.52 37.521C128.329 38.2913 128.734 39.2296 128.734 40.3358C128.734 41.2839 128.478 42.1629 127.964 42.9728C127.471 43.7629 126.809 44.4049 125.98 44.8988C125.151 45.3728 124.243 45.6099 123.256 45.6099C122.743 45.6099 122.22 45.5308 121.687 45.3728C121.154 45.2148 120.631 44.9679 120.118 44.6321C120.216 45.8568 120.572 46.7457 121.184 47.2988C121.795 47.8518 122.526 48.1284 123.375 48.1284C123.967 48.1284 124.559 48.0197 125.151 47.8025C125.744 47.5654 126.286 47.2691 126.78 46.9136C127.293 46.5383 127.688 46.1432 127.964 45.7284L128.172 45.8765C128.172 46.9037 127.954 47.7827 127.52 48.5136C127.106 49.2247 126.553 49.8074 125.862 50.2617C125.171 50.716 124.411 51.0518 123.582 51.2691C122.773 51.4667 121.963 51.5654 121.154 51.5654ZM121.835 43.5654C122.467 43.5654 122.98 43.3876 123.375 43.0321C123.769 42.6568 124.066 42.2222 124.263 41.7284C124.46 41.2346 124.559 40.8 124.559 40.4247C124.559 39.9704 124.431 39.5951 124.174 39.2988C123.918 38.9827 123.562 38.8247 123.108 38.8247C122.753 38.8247 122.358 38.9531 121.924 39.2099C121.509 39.4667 121.134 39.9111 120.799 40.5432C120.463 41.1555 120.246 42.0148 120.147 43.121C120.779 43.4173 121.341 43.5654 121.835 43.5654ZM37.784 79.2197C37.0141 79.2197 36.2344 79.1308 35.4448 78.9531C34.6552 78.7753 33.9248 78.4987 33.2536 78.1234C32.6022 77.7284 32.0692 77.2247 31.6546 76.6123C31.2598 75.9802 31.0624 75.2296 31.0624 74.3605C31.0624 74.2617 31.0624 74.1728 31.0624 74.0938C31.0624 73.995 31.0723 73.8765 31.092 73.7383C31.1513 73.2049 31.2796 72.5432 31.477 71.7531C31.6941 70.9629 31.9409 70.1234 32.2172 69.2345C32.4936 68.3457 32.7601 67.4666 33.0167 66.5975C33.2931 65.7284 33.5201 64.9383 33.6977 64.2271C33.8754 63.4963 33.9642 62.9136 33.9642 62.479C33.9642 62.0049 33.8359 61.7679 33.5793 61.7679C33.3227 61.7679 32.9377 62.0148 32.4245 62.5086C31.9113 63.0025 31.319 63.8222 30.6479 64.9679L30.4702 64.9086C30.4702 63.3086 30.8255 61.9457 31.5362 60.8197C32.2666 59.6741 33.2931 58.8049 34.6157 58.2123C35.958 57.6 37.5372 57.2938 39.3533 57.2938C41.051 57.2938 42.5118 57.5506 43.7357 58.0642C44.9596 58.558 45.9564 59.2395 46.7263 60.1086C47.5159 60.9778 48.0983 61.9753 48.4733 63.1012C48.8484 64.2074 49.0359 65.3728 49.0359 66.5975C49.0359 68.079 48.7694 69.5703 48.2364 71.0716C47.7232 72.5531 46.9731 73.916 45.9861 75.1605C45.0188 76.3852 43.8344 77.3728 42.4328 78.1234C41.051 78.8543 39.5014 79.2197 37.784 79.2197ZM38.2874 75.3086C39.077 75.3086 39.7876 75.0815 40.4193 74.6271C41.0707 74.1531 41.6333 73.5308 42.1071 72.7605C42.5809 71.9901 42.9461 71.1407 43.2027 70.2123C43.4593 69.2642 43.5876 68.316 43.5876 67.3679C43.5876 66.242 43.3902 65.1852 42.9954 64.1975C42.6203 63.2099 42.0084 62.4099 41.1596 61.7975C40.3107 61.1852 39.2053 60.879 37.8432 60.879C37.9419 61.2543 38.011 61.6395 38.0505 62.0346C38.1097 62.4296 38.1393 62.8346 38.1393 63.2494C38.1393 64.158 38.0505 65.0864 37.8728 66.0345C37.7149 66.9827 37.5274 67.9012 37.3102 68.7901C37.1128 69.679 36.9253 70.5086 36.7476 71.279C36.5897 72.0494 36.5107 72.7308 36.5107 73.3234C36.5107 73.9358 36.639 74.4197 36.8957 74.7753C37.1523 75.1308 37.6162 75.3086 38.2874 75.3086ZM56.7248 79.2197C55.2442 79.2197 54.0203 78.9234 53.0531 78.3308C52.0858 77.7382 51.3653 76.958 50.8915 75.9901C50.4375 75.0024 50.2105 73.9555 50.2105 72.8494C50.2105 71.8025 50.398 70.7555 50.7731 69.7086C51.1679 68.6617 51.7305 67.7136 52.4609 66.8642C53.211 65.995 54.119 65.3037 55.185 64.7901C56.251 64.2568 57.4749 63.9901 58.8567 63.9901C60.3372 63.9901 61.5513 64.2963 62.4988 64.9086C63.4661 65.5012 64.1767 66.2913 64.6307 67.279C65.1045 68.2666 65.3414 69.3234 65.3414 70.4494C65.3414 71.4765 65.1539 72.5136 64.7788 73.5605C64.4037 74.5876 63.8411 75.5358 63.091 76.4049C62.3606 77.2543 61.4624 77.9358 60.3964 78.4494C59.3305 78.9629 58.1066 79.2197 56.7248 79.2197ZM57.5242 76.7012C58.0572 76.7012 58.5014 76.4247 58.8567 75.8716C59.212 75.3185 59.4785 74.6173 59.6562 73.7679C59.8339 72.8987 59.9227 72.0197 59.9227 71.1308C59.9227 70.3407 59.8437 69.6 59.6858 68.9086C59.5476 68.1975 59.3305 67.6247 59.0344 67.1901C58.7383 66.7358 58.3533 66.5086 57.8796 66.5086C57.3663 66.5086 56.9222 66.7852 56.5471 67.3383C56.1918 67.8913 55.9253 68.5926 55.7476 69.442C55.57 70.2913 55.4811 71.1704 55.4811 72.079C55.4811 72.8691 55.5502 73.6197 55.6884 74.3308C55.8463 75.0222 56.0733 75.595 56.3694 76.0494C56.6655 76.4839 57.0505 76.7012 57.5242 76.7012ZM71.0675 79.1308C70.1792 79.1308 69.4291 78.7654 68.8171 78.0345C68.2249 77.3037 67.9288 76.3259 67.9288 75.1012C67.9288 74.4296 68.0078 73.7086 68.1657 72.9382C68.3236 72.1679 68.4816 71.437 68.6395 70.7457C68.7777 70.2321 68.8862 69.758 68.9652 69.3234C69.0639 68.8691 69.1132 68.5037 69.1132 68.2271C69.1132 67.8716 69.0343 67.6148 68.8764 67.4568C68.7382 67.2987 68.5704 67.2197 68.373 67.2197C68.1756 67.2197 67.9782 67.2889 67.7808 67.4271C67.5834 67.5457 67.4255 67.7333 67.307 67.9901L67.0701 67.9012C67.0701 67.0913 67.2675 66.4 67.6623 65.8271C68.0571 65.2543 68.5605 64.8197 69.1725 64.5234C69.7844 64.2271 70.4062 64.079 71.0379 64.079C71.5512 64.079 72.0447 64.1876 72.5184 64.4049C72.9922 64.6024 73.3771 64.9185 73.6733 65.3531C73.9891 65.7876 74.147 66.3308 74.147 66.9827C74.147 67.3778 74.0878 67.8518 73.9694 68.4049C73.8707 68.958 73.7522 69.5308 73.614 70.1234C73.4759 70.7358 73.3377 71.358 73.1995 71.9901C73.081 72.6024 73.0218 73.1457 73.0218 73.6197C73.0218 74.0543 73.0909 74.4099 73.2291 74.6864C73.3673 74.9629 73.5746 75.1012 73.8509 75.1012C74.3642 75.1012 74.9366 74.6271 75.5683 73.679C76.2197 72.7308 76.7429 71.4568 77.1377 69.8568C77.2166 69.5407 77.2857 69.2049 77.3449 68.8494C77.4042 68.4938 77.4338 68.1284 77.4338 67.7531C77.4338 67.4568 77.414 67.1605 77.3746 66.8642C77.3351 66.5481 77.2758 66.2321 77.1969 65.916V65.7086C77.5127 65.1753 77.9174 64.7704 78.4109 64.4938C78.9242 64.2173 79.4374 64.079 79.9507 64.079C80.6416 64.079 81.2634 64.316 81.8161 64.7901C82.3688 65.2642 82.6452 65.9555 82.6452 66.8642C82.6452 67.3975 82.5465 68.0197 82.3491 68.7308C82.1517 69.4222 81.9345 70.1432 81.6977 70.8938C81.4608 71.6247 81.2436 72.3457 81.0462 73.0568C80.8488 73.7679 80.7501 74.4 80.7501 74.9531C80.7501 75.7629 81.0364 76.1679 81.6088 76.1679C81.7668 76.1679 81.9543 76.1284 82.1714 76.0494C82.4083 75.9506 82.6255 75.7629 82.8229 75.4864L83.0301 75.5457C83.0301 76.2568 82.8327 76.8889 82.4379 77.442C82.0629 77.9753 81.5792 78.3901 80.987 78.6864C80.3948 78.9827 79.7829 79.1308 79.1512 79.1308C78.3418 79.1308 77.6114 78.8345 76.96 78.242C76.3283 77.6494 76.0125 76.6815 76.0125 75.3382V75.279C75.2031 76.6617 74.3642 77.6494 73.4956 78.242C72.627 78.8345 71.8177 79.1308 71.0675 79.1308ZM92.5284 79.1308C91.7388 79.1308 91.0182 78.9629 90.3668 78.6271C89.7154 78.2716 89.1824 77.758 88.7678 77.0864C88.7481 77.4617 88.6099 77.8074 88.3533 78.1234C88.0967 78.4395 87.613 78.5975 86.9024 78.5975C86.1128 78.5975 85.5304 78.3802 85.1554 77.9457C84.7803 77.5111 84.5928 76.9382 84.5928 76.2271C84.5928 75.7926 84.652 75.1703 84.7704 74.3605C84.8889 73.5308 85.0271 72.6024 85.185 71.5753C85.3626 70.5481 85.5304 69.4815 85.6884 68.3753C85.866 67.2691 86.0141 66.1926 86.1325 65.1457C86.251 64.0987 86.3102 63.1605 86.3102 62.3308C86.3102 61.7778 86.2806 61.2938 86.2213 60.879C86.1621 60.4642 86.0536 60.1383 85.8956 59.9012V59.7234C86.3497 59.2296 86.8234 58.8642 87.3169 58.6271C87.8104 58.3704 88.2842 58.242 88.7382 58.242C89.4094 58.242 89.9819 58.5086 90.4556 59.042C90.9294 59.5753 91.1663 60.4247 91.1663 61.5901C91.1663 62.1629 91.1071 62.9728 90.9886 64.0197C90.8702 65.0469 90.7221 66.0741 90.5445 67.1012C91.2551 66.0938 92.0052 65.3234 92.7949 64.7901C93.6042 64.2568 94.3839 63.9901 95.1341 63.9901C96.1408 63.9901 96.9995 64.4741 97.7102 65.442C98.4208 66.3901 98.7764 67.8321 98.7764 69.7679C98.7764 70.9136 98.638 72.0494 98.3616 73.1753C98.105 74.2815 97.7102 75.2889 97.1772 76.1975C96.6442 77.0864 95.9829 77.7975 95.1933 78.3308C94.4234 78.8642 93.5351 79.1308 92.5284 79.1308ZM91.0478 76.1382C91.6795 76.1382 92.2125 75.8617 92.6468 75.3086C93.1008 74.7555 93.4364 74.0543 93.6536 73.2049C93.8904 72.3358 94.0089 71.4469 94.0089 70.5382C94.0089 69.9457 93.9595 69.3827 93.8608 68.8494C93.7621 68.2963 93.6141 67.8518 93.4167 67.516C93.2193 67.1605 92.9626 66.9827 92.6468 66.9827C92.0941 66.9827 91.4624 67.6346 90.7517 68.9383C90.0608 70.2222 89.518 72.0494 89.1232 74.4197C89.4785 75.5654 90.1201 76.1382 91.0478 76.1382ZM103.79 79.1308C103.257 79.1308 102.734 79.0024 102.221 78.7457C101.728 78.4691 101.323 78.0345 101.007 77.442C100.691 76.8494 100.533 76.0889 100.533 75.1605C100.533 74.3308 100.642 73.3629 100.859 72.2568C101.096 71.1308 101.352 69.9654 101.629 68.7605C101.925 67.5555 102.182 66.3802 102.399 65.2346C102.616 64.0889 102.715 63.0716 102.695 62.1827C102.695 61.3333 102.596 60.7308 102.399 60.3753L102.369 60.2864C102.586 59.6543 102.971 59.1605 103.524 58.8049C104.077 58.4494 104.659 58.2716 105.271 58.2716C105.962 58.2716 106.574 58.5383 107.107 59.0716C107.659 59.5852 107.936 60.4543 107.936 61.679C107.936 62.3308 107.857 63.1111 107.699 64.0197C107.541 64.9086 107.353 65.8667 107.136 66.8938C106.919 67.9012 106.692 68.8987 106.455 69.8864C106.238 70.8741 106.051 71.7827 105.893 72.6123C105.735 73.442 105.656 74.1234 105.656 74.6568C105.656 75.2099 105.735 75.595 105.893 75.8123C106.051 76.0099 106.228 76.1086 106.426 76.1086C106.643 76.1086 106.85 76.0296 107.048 75.8716C107.245 75.6938 107.373 75.5358 107.432 75.3975L107.669 75.4568C107.65 76.1679 107.442 76.8 107.048 77.3531C106.672 77.9061 106.189 78.3407 105.597 78.6568C105.024 78.9728 104.422 79.1308 103.79 79.1308ZM115.631 79.2197C114.19 79.2197 112.995 78.9333 112.048 78.3605C111.1 77.7679 110.39 76.9975 109.916 76.0494C109.442 75.0815 109.205 74.0444 109.205 72.9382C109.205 71.8913 109.403 70.8444 109.797 69.7975C110.212 68.7308 110.804 67.7629 111.574 66.8938C112.364 66.0247 113.311 65.3234 114.417 64.7901C115.542 64.2568 116.805 63.9901 118.207 63.9901C119.944 63.9901 121.207 64.3852 121.997 65.1753C122.806 65.9457 123.211 66.8839 123.211 67.9901C123.211 68.9382 122.954 69.8173 122.441 70.6271C121.947 71.4173 121.286 72.0592 120.457 72.5531C119.628 73.0271 118.72 73.2642 117.733 73.2642C117.22 73.2642 116.697 73.1852 116.164 73.0271C115.631 72.8691 115.107 72.6222 114.594 72.2864C114.693 73.5111 115.048 74.4 115.66 74.9531C116.272 75.5062 117.003 75.7827 117.851 75.7827C118.444 75.7827 119.036 75.6741 119.628 75.4568C120.22 75.2197 120.763 74.9234 121.257 74.5679C121.77 74.1926 122.165 73.7975 122.441 73.3827L122.648 73.5308C122.648 74.558 122.431 75.437 121.997 76.1679C121.582 76.879 121.03 77.4617 120.339 77.916C119.648 78.3703 118.888 78.7062 118.059 78.9234C117.249 79.121 116.44 79.2197 115.631 79.2197ZM116.312 71.2197C116.943 71.2197 117.457 71.042 117.851 70.6864C118.246 70.3111 118.542 69.8765 118.74 69.3827C118.937 68.8889 119.036 68.4543 119.036 68.079C119.036 67.6247 118.907 67.2494 118.651 66.9531C118.394 66.637 118.039 66.479 117.585 66.479C117.23 66.479 116.835 66.6074 116.4 66.8642C115.986 67.121 115.611 67.5654 115.275 68.1975C114.94 68.8099 114.723 69.6691 114.624 70.7753C115.256 71.0716 115.818 71.2197 116.312 71.2197Z" fill="#0A4340"/>
</g>
<defs>
<clipPath id="clip0_319_5252">
<rect width="152" height="80" fill="white"/>
</clipPath>
</defs>
</svg>
